<?xml version="1.0" encoding="UTF-8"?>
<svg id="Warstwa_2" data-name="Warstwa 2" xmlns="http://www.w3.org/2000/svg" viewBox="0 0 1397.38 767.31">
  <defs>
    <style>
      .cls-1 {
        fill: #fff;
      }
    </style>
  </defs>
  <g id="backupy">
    <g>
      <path class="cls-1" d="M553.83,410.98c36.74-73.15,70.88-148.12,94.02-226.74,4.54-16.37,5.24-34.55-4.97-48.5-10.47-16.45-53.35-40.8-72.87-34.61-9.96,3.85-8.94,18.68-8.94,28.95.13,6.78.04,14.52-.4,21.58-2.38,37.44-19.7,72.65-37.69,106.05-16,32.41-34.98,61.19-54.39,91.68-7.53,12.13-14.96,24.43-22.09,36.75-2.44,3.87-19.58,35.04-16.75,17.59,11.9-48.04,30.45-95.03,44.35-142.73,4.87-15.97,9.7-32.39,13.79-48.45,2.99-12.33,6.19-25.39,4.34-37.48-2.18-14.37-12.32-19.82-25.63-12.67-8.22,4.25-16.5,12.32-23.4,19.37-11.82,12.19-23.97,24.13-36.67,35.4-32.68,29.41-69.92,54.41-108.34,75.88-9.74,5.07-22.51,12.83-31.94,13.57-10.13-.74,10.44-23.86,13.74-28.25,6.41-7.81,12.85-15.9,19.08-24.1,36.79-50.22,73.08-102.4,94.91-161.09,8.07-23.25,14.45-52.52.3-74.19-15.49-22.79-45.94-22.35-70.32-12.81-62.34,25.37-120.95,85.84-164.12,136.79-32,38.03-64.95,76.75-90.72,119.63-27.73,45.1-54.68,94.56-65.34,147.46-10.69,49.55-.8,108.11,56.89,118.64,60.9,8.86,123.91-33.7,171.29-68.02,29.74-22.02,57.95-45.94,85.36-70.85,11.76-10.42,37.1-33.52,22.56.44-15.46,34.05-32.34,67.1-43.33,103.19-10.16,33.91-19.9,70.75-10.25,105.81,12.93,44.19,53.62,55.62,92.36,33.53,30.55-16.67,54.78-42.46,76.64-69.07,38.47-47.07,71.22-98.3,98.4-152.47l.15-.3Z"/>
      <path class="cls-1" d="M1390.75,275.52c-15.75-11.69-46.55-3.12-64.94.53-54.95,13.43-107.9,34.87-154.46,67.04-17.13,11.72-37.39,24.77-47.54-1.99-3.99-10.1-7.18-23.53-9.09-32.96-1.04-6.26-3.66-16.65,5.2-17.8,9.94-.89,20.47,2.33,30.59,2.26,17.86-.07,33.34-1.9,51.9-4.12,23.91-3.43,49.43-8.35,73.54-14.62,17.56-4.66,38.78-9.6,48.3-26.11,7.33-12.6,5.82-28.7,3.89-42.86-4.54-28.51-7.82-57.53-14.58-85.54-8.31-30.95-24.33-4.53-35.87,8.04-18.51,21.87-43.38,37.45-68.68,50.75-27.25,15.01-53.32,24.57-82.23,33.09-50.07,18.45-81.76,7.7-92.19,72.17-5.71,27.84-5.8,56.87-6.33,85.08-.21,12.22-.41,24.31-.44,36.58.1,9.71.71,19.9,4.69,28.27,7.95,16.94,28.05,19.83,44.98,26.64,72.13,31.49,103.27,113.03,119.61,184.59,3.54,15.03,6.55,30.07,9.54,45.28,4.47,19.54,6.85,41.68,17.93,58.5,16.11,25.29,57.78,24.26,76.33,2.92,17.72-22.41,6.69-55.97,3.46-81.97-11.75-68.45-28.36-137.45-66.31-196.6-4.99-8.6-11.37-19.95-8.77-28.76,5.31-15.44,30.76-18.9,44.67-25.74,14.74-6.15,28.93-13.54,42.29-22.33,30.11-20.09,57.49-46.44,73.58-79.04,6.05-12.61,12.89-30.61,1.07-41.18l-.17-.14Z"/>
      <path class="cls-1" d="M727.75,396.76c46.23-26.64,82.88-69.63,98.44-120.86,17.27-53.53,29.69-116.01,4.42-168.81-17.74-36.87-60.73-48.44-95.61-27.45-27.91,17-43.09,47.59-53.97,77.61-16.74,49.86-31.08,100.39-48.39,150.06-34.82,98.18-81.75,194.12-152.71,271.69-6.88,7.61-14.3,15.17-21.55,22.35-6.36,6.38-11.38,11.74-12.89,15.72-4.33,10.6,19.51,10.99,27.08,13,8.18,1.4,16.65,3.33,24.78,5.77,12.97,3.86,25.37,9.84,35.96,11.5,12.04,2.38,22.54-2.49,29.39-13.15,3.54-5.11,6.65-11.51,9.36-17.46,22.19-49.45,44.08-99.47,63.41-150.12,3.22-8.48,7.92-19.61,12.71-26.22,6.99-9.35,7.59.49,7.09,7.93-.45,7.48-2.16,16.67-3.9,24.41-8.81,39.67-16.86,79.9-20.83,120.27-3.07,38.8-5.58,84.84,22.87,115.25,15.79,16.5,40.04,21.85,62.57,22,9.45.36,26.59-1.2,29.31-6.74,4.67-8.26-6.1-19.75-11.21-27.58-5.5-7.52-11.18-15.63-15.78-23.3-38.4-64.13-26.65-140.09-20.4-212.65,2.38-30.52,3.15-47.92,29.57-63.04l.28-.17ZM695.3,326.37c-7.17-5.52-1.33-21.24.82-29.49,4.99-15.32,10.13-31.71,14.56-46.78,7.34-22.4,13.82-44.32,29.4-63.07,6.31-7.81,14.89-15.52,24.31-18.53,12.48-4.28,24.84.43,29.83,12.69,5.18,12.46,2.63,28.41-.35,41.09-6.52,27.62-24.67,49.32-45.88,71.65-9.75,10.09-38.81,38.58-52.56,32.52l-.12-.08Z"/>
      <path class="cls-1" d="M1008.37,423.99c-.04-52.89-4.26-107.37-22.56-157.51-6.83-19.19-14.33-37.1-27.46-53.11-34.6-43.33-92.39-33.98-112.15,17.15-6.37,17.19-10.54,34.53-16.16,52.43-7.2,23.03-16.89,42.31-24.3,63.63-8.48,25.71-16.56,51.92-19.09,79.44-2.58,25.15-4.09,50.62-5.57,75.97-1.81,30.93-3.01,62.23.96,93.19,5.23,40.5,16.38,82.84,44.81,113.24,32.16,35.68,78.92,32.85,111.9-.1,20.5-20.34,34-48.34,42.7-76.01,8.74-27.7,12.06-56.64,15.96-85.32,5.19-41.87,10.4-80.39,10.97-122.68v-.33ZM961.46,416.7c.1,52.3-8.34,105.96-30.35,153.67-5.99,12.08-14.18,23.14-23.83,28.29-11.18,6.55-24.44,2.69-32.84-7.77-30-36.28-32.8-139.83-29.07-186.89,3.23-29.27,6.69-62.79,19.9-90.24,23.52-45.19,63.39-33.64,80.92,9.21,12.71,29.23,14.87,61.49,15.26,93.38v.34Z"/>
      <path class="cls-1" d="M1167.49,629.6c-6.26-42.83-21.62-91.09-54.02-121.86-15.67-15.01-39.61-23.71-60-13.47-30.87,15.22-34.64,55.63-35.58,86.39-.8,27.37-.73,55.54,7.74,82.06,11.71,36.69,42.09,86.5,84.32,89.11,27.51.63,44.6-23.4,52.73-48.68,7.7-23.52,8.16-49.28,4.85-73.22l-.04-.33ZM1132.14,654.09c-4.07,21.14-22.18,42.95-44.58,32.24-24.81-13.33-32.04-45.95-32.54-71.95-.39-20.27,7.57-46.67,29.7-51.42,11.89-2.23,22.42,3.89,30.42,13.45,16.44,20.17,22.55,51.89,17.07,77.34l-.08.34Z"/>
    </g>
  </g>
</svg>